<svg version="1.2" xmlns="http://www.w3.org/2000/svg" viewBox="0 0 100 100" width="100" height="100">
	<title>PB-svg</title>
	<style>
		.s0 { fill: #fefcfe } 
		.s1 { fill: #000000 } 
	</style>
	<path id="Layer" class="s0" d="m74.9 28.8c3.7 2.1 25.6 15.5 25.6 20.7c0 4.7-22.1 18.3-26.3 20.4c-3.7 2.6-22.9 13.4-38.2 6.1c-7.9-4.2-6.3-13.8-13-15c-6-1.1-10.7 11.7-14.3 15.2c-1.9 1.9-7.8 0.5-7.8-2.1c0.5-13.6-0.5-31.1 0.1-48.4c0-2.6 5.8-2.1 7.9 0c8.5 6.3 6.4 13.1 13.7 12.6c6.9-0.5 6.4-12.8 14.3-16.5c15.8-6.8 32.8 3.9 38 7z" />
	<path id="Layer" class="s1" d="m27.3 45.1c-3.1-0.5 4.2-15.8 14.7-18.5c13.2-3.1 15.4 0.9 28.5 6.6c13.2 5.3 27.9 15.8 23.2 16.3c-7.4 1.1-21.1 4.2-31.1 3.1c-11-1.5-5.2-7.8-17.9-9.4c-8.9-0.5-14.2 2.4-17.4 1.9z" />
</svg>