<svg width="672" height="936" viewBox="0 0 672 936" fill="none" xmlns="http://www.w3.org/2000/svg">
<g filter="url(#filter0_ii_4_458955)">
<rect x="52.5" y="585.5" width="569" height="279" fill="#F2F2F1"/>
</g>
<g clip-path="url(#clip0_4_458955)">
<mask id="mask0_4_458955" style="mask-type:alpha" maskUnits="userSpaceOnUse" x="24" y="32" width="82" height="816">
<path d="M24 65.0088C24 53.8046 24 48.2026 26.1799 43.9232C28.0973 40.1589 31.1569 37.0984 34.9202 35.1804C42.5431 31.2953 65.2714 32.9999 46 32.9999C41.5 32.9999 57.2011 32.9999 46 32.9999C46 42.9199 46 54.637 46 65.0088V710.344C46 711.749 46 712.452 46.9871 719.319C47.3277 721.688 50.5513 734.977 51.334 737.238C53.6027 743.794 48.8681 734.609 50.7619 738.283C65.3694 766.62 104.129 786.339 105.473 816.971C107.07 853.376 51.0753 858.848 34.5512 826.37V826.37C24 805.632 24 778.501 24 724.24V65.0088Z" fill="white"/>
</mask>
<g mask="url(#mask0_4_458955)">
<g filter="url(#filter1_dd_4_458955)">
<path d="M48.0675 43.9976L47.0633 43.0076C46.8313 42.7789 46.8287 42.4053 47.0574 42.1733C47.1683 42.0609 47.3196 41.9976 47.4775 41.9976H625.522C625.68 41.9976 625.832 42.0609 625.943 42.1733C626.171 42.4053 626.169 42.7789 625.937 43.0076L624.933 43.9976M48.0675 43.9976C46.6432 42.5934 46.6425 42.5941 46.6418 42.5949L46.6402 42.5965L46.6362 42.6006L46.6255 42.6115L46.5934 42.6448C46.5674 42.6721 46.532 42.7094 46.488 42.7569C46.4 42.8518 46.2773 42.987 46.125 43.1624C45.8204 43.5131 45.3968 44.0245 44.8943 44.6947C43.8896 46.0345 42.5672 48.012 41.2499 50.6099C38.6129 55.8109 36 63.4938 36 73.4976C36 83.5013 38.6129 91.1842 41.2499 96.3852C42.5672 98.9832 43.8896 100.961 44.8943 102.3C45.3968 102.971 45.8204 103.482 46.125 103.833C46.2773 104.008 46.4 104.143 46.488 104.238C46.532 104.286 46.5674 104.323 46.5934 104.35L46.6255 104.384L46.6362 104.395L46.6402 104.399L46.6418 104.4C46.6425 104.401 46.6432 104.402 48.0675 102.998M48.0675 43.9976C48.0675 43.9976 38 54.2091 38 73.4976C38 92.786 48.0675 102.998 48.0675 102.998M48.0675 43.9976H624.933M48.0675 102.998L47.0633 103.988C46.8313 104.216 46.8287 104.59 47.0574 104.822L47.0714 104.836C47.1733 104.939 47.3124 104.998 47.4576 104.998C47.7572 104.998 48 105.24 48 105.54V524.479C48 524.767 47.7667 525 47.479 525C47.3458 525 47.2177 525.051 47.121 525.142L47.107 525.156C46.8786 525.372 46.8685 525.732 47.0845 525.96L48 526.929C46.6933 525.547 46.6926 525.547 46.6919 525.548L46.6902 525.55L46.6753 525.564L46.6428 525.595C46.6165 525.621 46.5809 525.656 46.5366 525.701C46.448 525.79 46.3247 525.916 46.1717 526.081C45.8657 526.409 45.4404 526.888 44.936 527.515C43.9277 528.768 42.5998 530.619 41.2768 533.052C38.6279 537.922 36 545.123 36 554.5C36 563.877 38.6279 571.078 41.2768 575.948C42.5998 578.381 43.9277 580.232 44.936 581.485C45.4404 582.112 45.8657 582.591 46.1717 582.919C46.3247 583.083 46.448 583.21 46.5366 583.299C46.5809 583.344 46.6165 583.379 46.6428 583.405L46.6753 583.436L46.6862 583.446L46.6902 583.45L46.6919 583.452C46.6926 583.453 46.6933 583.453 48 582.071L47.0845 583.04C46.8685 583.268 46.8786 583.628 47.107 583.844L47.121 583.858C47.2177 583.949 47.3458 584 47.479 584C47.7667 584 48 584.233 48 584.521V866C48 867.105 48.8954 868 50 868H624C625.105 868 626 867.105 626 866V583.87C626 583.789 626.033 583.712 626.092 583.656C626.211 583.544 626.216 583.357 626.104 583.239L626 583.129M48.0675 102.998H624.096C624.631 102.998 625.138 102.789 625.485 102.381C627.592 99.9101 635 90.0434 635 73.4976C635 54.2091 624.933 43.9976 624.933 43.9976M624.933 43.9976C626.357 42.5934 626.357 42.5941 626.358 42.5949L626.36 42.5965L626.364 42.6006L626.374 42.6115L626.407 42.6448C626.433 42.6721 626.468 42.7094 626.512 42.7569C626.6 42.8518 626.723 42.987 626.875 43.1624C627.18 43.5131 627.603 44.0245 628.106 44.6947C629.11 46.0345 630.433 48.012 631.75 50.6099C634.387 55.8109 637 63.4938 637 73.4976C637 83.5013 634.387 91.1842 631.75 96.3852C630.433 98.9832 629.11 100.961 628.106 102.3C627.603 102.971 627.18 103.482 626.875 103.833C626.723 104.008 626.6 104.143 626.512 104.238C626.468 104.286 626.433 104.323 626.407 104.35L626.374 104.384L626.364 104.395L626.36 104.399L626.358 104.4C626.358 104.401 626.357 104.401 626 104.05M626 104.05L626.105 104.154C626.244 104.291 626.246 104.514 626.109 104.653L626.104 104.658C626.037 104.726 626 104.817 626 104.911V525.13C626 525.211 626.033 525.288 626.092 525.344C626.211 525.456 626.216 525.643 626.104 525.761L626 525.871M626 104.05C626 104.05 626 104.05 626 104.05ZM626 583.129C626.307 583.453 626.308 583.452 626.308 583.452L626.31 583.45L626.314 583.446L626.325 583.436L626.357 583.405L626.395 583.367C626.415 583.348 626.438 583.325 626.463 583.299C626.552 583.21 626.675 583.083 626.828 582.919C627.134 582.591 627.56 582.112 628.064 581.485C629.072 580.232 630.4 578.381 631.723 575.948C634.372 571.078 637 563.877 637 554.5C637 545.123 634.372 537.922 631.723 533.052C630.4 530.619 629.072 528.768 628.064 527.515C627.56 526.888 627.134 526.409 626.828 526.081C626.675 525.916 626.552 525.79 626.463 525.701C626.419 525.656 626.383 525.621 626.357 525.595L626.325 525.564L626.314 525.554L626.31 525.55L626.308 525.548C626.308 525.548 626.307 525.547 626 525.871M626 583.129C626 583.129 626 583.129 626 583.129ZM626 525.871C626 525.871 626 525.871 626 525.871ZM38 554.5C38 539.059 45.4239 529.858 47.5215 527.567C47.8665 527.19 48.3522 527 48.8633 527H624.137C624.648 527 625.133 527.19 625.479 527.567C627.576 529.858 635 539.059 635 554.5C635 569.941 627.576 579.142 625.479 581.433C625.133 581.81 624.648 582 624.137 582H48.8633C48.3522 582 47.8665 581.81 47.5215 581.433C45.4239 579.142 38 569.941 38 554.5ZM624 864V586C624 584.895 623.105 584 622 584H52C50.8954 584 50 584.895 50 586V864C50 865.105 50.8954 866 52 866H622C623.105 866 624 865.105 624 864ZM50 523V108C50 106.895 50.8954 106 52 106H622C623.105 106 624 106.895 624 108V523C624 524.105 623.105 525 622 525H52C50.8954 525 50 524.105 50 523Z" stroke="white" stroke-width="5"/>
</g>
</g>
</g>
<g clip-path="url(#clip1_4_458955)">
<path d="M48.0675 43.9976L47.0633 43.0076C46.8313 42.7789 46.8287 42.4053 47.0574 42.1733C47.1683 42.0609 47.3196 41.9976 47.4775 41.9976H625.522C625.68 41.9976 625.832 42.0609 625.943 42.1733C626.171 42.4053 626.169 42.7789 625.937 43.0076L624.933 43.9976M48.0675 43.9976C46.6432 42.5934 46.6425 42.5941 46.6418 42.5949L46.6402 42.5965L46.6362 42.6006L46.6255 42.6115L46.5934 42.6448C46.5674 42.6721 46.532 42.7094 46.488 42.7569C46.4 42.8518 46.2773 42.987 46.125 43.1624C45.8204 43.5131 45.3968 44.0245 44.8943 44.6947C43.8896 46.0345 42.5672 48.012 41.2499 50.6099C38.6129 55.8109 36 63.4938 36 73.4976C36 83.5013 38.6129 91.1842 41.2499 96.3852C42.5672 98.9832 43.8896 100.961 44.8943 102.3C45.3968 102.971 45.8204 103.482 46.125 103.833C46.2773 104.008 46.4 104.143 46.488 104.238C46.532 104.286 46.5674 104.323 46.5934 104.35L46.6255 104.384L46.6362 104.395L46.6402 104.399L46.6418 104.4C46.6425 104.401 46.6432 104.402 48.0675 102.998M48.0675 43.9976C48.0675 43.9976 38 54.2091 38 73.4976C38 92.786 48.0675 102.998 48.0675 102.998M48.0675 43.9976H624.933M48.0675 102.998L47.0633 103.988C46.8313 104.216 46.8287 104.59 47.0574 104.822L47.0714 104.836C47.1733 104.939 47.3124 104.998 47.4576 104.998C47.7572 104.998 48 105.24 48 105.54V524.479C48 524.767 47.7667 525 47.479 525C47.3458 525 47.2177 525.051 47.121 525.142L47.107 525.156C46.8786 525.372 46.8685 525.732 47.0845 525.96L48 526.929C46.6933 525.547 46.6926 525.547 46.6919 525.548L46.6902 525.55L46.6753 525.564L46.6428 525.595C46.6165 525.621 46.5809 525.656 46.5366 525.701C46.448 525.79 46.3247 525.916 46.1717 526.081C45.8657 526.409 45.4404 526.888 44.936 527.515C43.9277 528.768 42.5998 530.619 41.2768 533.052C38.6279 537.922 36 545.123 36 554.5C36 563.877 38.6279 571.078 41.2768 575.948C42.5998 578.381 43.9277 580.232 44.936 581.485C45.4404 582.112 45.8657 582.591 46.1717 582.919C46.3247 583.083 46.448 583.21 46.5366 583.299C46.5809 583.344 46.6165 583.379 46.6428 583.405L46.6753 583.436L46.6862 583.446L46.6902 583.45L46.6919 583.452C46.6926 583.453 46.6933 583.453 48 582.071L47.0845 583.04C46.8685 583.268 46.8786 583.628 47.107 583.844L47.121 583.858C47.2177 583.949 47.3458 584 47.479 584C47.7667 584 48 584.233 48 584.521V866C48 867.105 48.8954 868 50 868H624C625.105 868 626 867.105 626 866V583.87C626 583.789 626.033 583.712 626.092 583.656C626.211 583.544 626.216 583.357 626.104 583.239L626 583.129M48.0675 102.998H624.096C624.631 102.998 625.138 102.789 625.485 102.381C627.592 99.9101 635 90.0434 635 73.4976C635 54.2091 624.933 43.9976 624.933 43.9976M624.933 43.9976C626.357 42.5934 626.357 42.5941 626.358 42.5949L626.36 42.5965L626.364 42.6006L626.374 42.6115L626.407 42.6448C626.433 42.6721 626.468 42.7094 626.512 42.7569C626.6 42.8518 626.723 42.987 626.875 43.1624C627.18 43.5131 627.603 44.0245 628.106 44.6947C629.11 46.0345 630.433 48.012 631.75 50.6099C634.387 55.8109 637 63.4938 637 73.4976C637 83.5013 634.387 91.1842 631.75 96.3852C630.433 98.9832 629.11 100.961 628.106 102.3C627.603 102.971 627.18 103.482 626.875 103.833C626.723 104.008 626.6 104.143 626.512 104.238C626.468 104.286 626.433 104.323 626.407 104.35L626.374 104.384L626.364 104.395L626.36 104.399L626.358 104.4C626.358 104.401 626.357 104.401 626 104.05M626 104.05L626.105 104.154C626.244 104.291 626.246 104.514 626.109 104.653L626.104 104.658C626.037 104.726 626 104.817 626 104.911V525.13C626 525.211 626.033 525.288 626.092 525.344C626.211 525.456 626.216 525.643 626.104 525.761L626 525.871M626 104.05C626 104.05 626 104.05 626 104.05ZM626 583.129C626.307 583.453 626.308 583.452 626.308 583.452L626.31 583.45L626.314 583.446L626.325 583.436L626.357 583.405L626.395 583.367C626.415 583.348 626.438 583.325 626.463 583.299C626.552 583.21 626.675 583.083 626.828 582.919C627.134 582.591 627.56 582.112 628.064 581.485C629.072 580.232 630.4 578.381 631.723 575.948C634.372 571.078 637 563.877 637 554.5C637 545.123 634.372 537.922 631.723 533.052C630.4 530.619 629.072 528.768 628.064 527.515C627.56 526.888 627.134 526.409 626.828 526.081C626.675 525.916 626.552 525.79 626.463 525.701C626.419 525.656 626.383 525.621 626.357 525.595L626.325 525.564L626.314 525.554L626.31 525.55L626.308 525.548C626.308 525.548 626.307 525.547 626 525.871M626 583.129C626 583.129 626 583.129 626 583.129ZM626 525.871C626 525.871 626 525.871 626 525.871ZM38 554.5C38 539.059 45.4239 529.858 47.5215 527.567C47.8665 527.19 48.3522 527 48.8633 527H624.137C624.648 527 625.133 527.19 625.479 527.567C627.576 529.858 635 539.059 635 554.5C635 569.941 627.576 579.142 625.479 581.433C625.133 581.81 624.648 582 624.137 582H48.8633C48.3522 582 47.8665 581.81 47.5215 581.433C45.4239 579.142 38 569.941 38 554.5ZM624 864V586C624 584.895 623.105 584 622 584H52C50.8954 584 50 584.895 50 586V864C50 865.105 50.8954 866 52 866H622C623.105 866 624 865.105 624 864ZM50 523V108C50 106.895 50.8954 106 52 106H622C623.105 106 624 106.895 624 108V523C624 524.105 623.105 525 622 525H52C50.8954 525 50 524.105 50 523Z" stroke="#F6FCFC" stroke-width="5"/>
<mask id="mask1_4_458955" style="mask-type:alpha" maskUnits="userSpaceOnUse" x="24" y="33" width="624" height="847">
<path d="M24 65C24 53.7989 24 48.1984 26.1799 43.9202C28.0973 40.1569 31.1569 37.0973 34.9202 35.1799C39.1984 33 44.7989 33 56 33H616C627.201 33 632.802 33 637.08 35.1799C640.843 37.0973 643.903 40.1569 645.82 43.9202C648 48.1984 648 53.799 648 65V724.551C648 778.955 648 806.157 637.406 826.923C628.088 845.189 613.221 860.033 594.94 869.321C574.157 879.882 546.955 879.838 492.551 879.751L178.951 879.248C124.705 879.161 97.5816 879.118 76.866 868.534C58.6436 859.223 43.8325 844.388 34.5512 826.151C24 805.418 24 778.295 24 724.049V65Z" fill="black"/>
</mask>
<g mask="url(#mask1_4_458955)">
<g filter="url(#filter2_d_4_458955)">
<path d="M48.0675 43.9976L47.0633 43.0076C46.8313 42.7789 46.8287 42.4053 47.0574 42.1733C47.1683 42.0609 47.3196 41.9976 47.4775 41.9976H625.522C625.68 41.9976 625.832 42.0609 625.943 42.1733C626.171 42.4053 626.169 42.7789 625.937 43.0076L624.933 43.9976M48.0675 43.9976C46.6432 42.5934 46.6425 42.5941 46.6418 42.5949L46.6402 42.5965L46.6362 42.6006L46.6255 42.6115L46.5934 42.6448C46.5674 42.6721 46.532 42.7094 46.488 42.7569C46.4 42.8518 46.2773 42.987 46.125 43.1624C45.8204 43.5131 45.3968 44.0245 44.8943 44.6947C43.8896 46.0345 42.5672 48.012 41.2499 50.6099C38.6129 55.8109 36 63.4938 36 73.4976C36 83.5013 38.6129 91.1842 41.2499 96.3852C42.5672 98.9832 43.8896 100.961 44.8943 102.3C45.3968 102.971 45.8204 103.482 46.125 103.833C46.2773 104.008 46.4 104.143 46.488 104.238C46.532 104.286 46.5674 104.323 46.5934 104.35L46.6255 104.384L46.6362 104.395L46.6402 104.399L46.6418 104.4C46.6425 104.401 46.6432 104.402 48.0675 102.998M48.0675 43.9976C48.0675 43.9976 38 54.2091 38 73.4976C38 92.786 48.0675 102.998 48.0675 102.998M48.0675 43.9976H624.933M48.0675 102.998L47.0633 103.988C46.8313 104.216 46.8287 104.59 47.0574 104.822L47.0714 104.836C47.1733 104.939 47.3124 104.998 47.4576 104.998C47.7572 104.998 48 105.24 48 105.54V524.479C48 524.767 47.7667 525 47.479 525C47.3458 525 47.2177 525.051 47.121 525.142L47.107 525.156C46.8786 525.372 46.8685 525.732 47.0845 525.96L48 526.929C46.6933 525.547 46.6926 525.547 46.6919 525.548L46.6902 525.55L46.6753 525.564L46.6428 525.595C46.6165 525.621 46.5809 525.656 46.5366 525.701C46.448 525.79 46.3247 525.916 46.1717 526.081C45.8657 526.409 45.4404 526.888 44.936 527.515C43.9277 528.768 42.5998 530.619 41.2768 533.052C38.6279 537.922 36 545.123 36 554.5C36 563.877 38.6279 571.078 41.2768 575.948C42.5998 578.381 43.9277 580.232 44.936 581.485C45.4404 582.112 45.8657 582.591 46.1717 582.919C46.3247 583.083 46.448 583.21 46.5366 583.299C46.5809 583.344 46.6165 583.379 46.6428 583.405L46.6753 583.436L46.6862 583.446L46.6902 583.45L46.6919 583.452C46.6926 583.453 46.6933 583.453 48 582.071L47.0845 583.04C46.8685 583.268 46.8786 583.628 47.107 583.844L47.121 583.858C47.2177 583.949 47.3458 584 47.479 584C47.7667 584 48 584.233 48 584.521V866C48 867.105 48.8954 868 50 868H624C625.105 868 626 867.105 626 866V583.87C626 583.789 626.033 583.712 626.092 583.656C626.211 583.544 626.216 583.357 626.104 583.239L626 583.129M48.0675 102.998H624.096C624.631 102.998 625.138 102.789 625.485 102.381C627.592 99.9101 635 90.0434 635 73.4976C635 54.2091 624.933 43.9976 624.933 43.9976M624.933 43.9976C626.357 42.5934 626.357 42.5941 626.358 42.5949L626.36 42.5965L626.364 42.6006L626.374 42.6115L626.407 42.6448C626.433 42.6721 626.468 42.7094 626.512 42.7569C626.6 42.8518 626.723 42.987 626.875 43.1624C627.18 43.5131 627.603 44.0245 628.106 44.6947C629.11 46.0345 630.433 48.012 631.75 50.6099C634.387 55.8109 637 63.4938 637 73.4976C637 83.5013 634.387 91.1842 631.75 96.3852C630.433 98.9832 629.11 100.961 628.106 102.3C627.603 102.971 627.18 103.482 626.875 103.833C626.723 104.008 626.6 104.143 626.512 104.238C626.468 104.286 626.433 104.323 626.407 104.35L626.374 104.384L626.364 104.395L626.36 104.399L626.358 104.4C626.358 104.401 626.357 104.401 626 104.05M626 104.05L626.105 104.154C626.244 104.291 626.246 104.514 626.109 104.653L626.104 104.658C626.037 104.726 626 104.817 626 104.911V525.13C626 525.211 626.033 525.288 626.092 525.344C626.211 525.456 626.216 525.643 626.104 525.761L626 525.871M626 104.05C626 104.05 626 104.05 626 104.05ZM626 583.129C626.307 583.453 626.308 583.452 626.308 583.452L626.31 583.45L626.314 583.446L626.325 583.436L626.357 583.405L626.395 583.367C626.415 583.348 626.438 583.325 626.463 583.299C626.552 583.21 626.675 583.083 626.828 582.919C627.134 582.591 627.56 582.112 628.064 581.485C629.072 580.232 630.4 578.381 631.723 575.948C634.372 571.078 637 563.877 637 554.5C637 545.123 634.372 537.922 631.723 533.052C630.4 530.619 629.072 528.768 628.064 527.515C627.56 526.888 627.134 526.409 626.828 526.081C626.675 525.916 626.552 525.79 626.463 525.701C626.419 525.656 626.383 525.621 626.357 525.595L626.325 525.564L626.314 525.554L626.31 525.55L626.308 525.548C626.308 525.548 626.307 525.547 626 525.871M626 583.129C626 583.129 626 583.129 626 583.129ZM626 525.871C626 525.871 626 525.871 626 525.871ZM38 554.5C38 539.059 45.4239 529.858 47.5215 527.567C47.8665 527.19 48.3522 527 48.8633 527H624.137C624.648 527 625.133 527.19 625.479 527.567C627.576 529.858 635 539.059 635 554.5C635 569.941 627.576 579.142 625.479 581.433C625.133 581.81 624.648 582 624.137 582H48.8633C48.3522 582 47.8665 581.81 47.5215 581.433C45.4239 579.142 38 569.941 38 554.5ZM624 864V586C624 584.895 623.105 584 622 584H52C50.8954 584 50 584.895 50 586V864C50 865.105 50.8954 866 52 866H622C623.105 866 624 865.105 624 864ZM50 523V108C50 106.895 50.8954 106 52 106H622C623.105 106 624 106.895 624 108V523C624 524.105 623.105 525 622 525H52C50.8954 525 50 524.105 50 523Z" stroke="#F6FCFC" stroke-width="5"/>
</g>
</g>
<mask id="mask2_4_458955" style="mask-type:alpha" maskUnits="userSpaceOnUse" x="287" y="847" width="100" height="23">
<rect width="100" height="23" transform="matrix(1 0 0 -1 287 870)" fill="#C4C4C4"/>
</mask>
<g mask="url(#mask2_4_458955)">
<ellipse cx="337" cy="876" rx="47.1702" ry="27.6451" fill="#F6FCFC"/>
</g>
<ellipse cx="337" cy="876" rx="40" ry="22" fill="#17140F"/>
<mask id="mask3_4_458955" style="mask-type:alpha" maskUnits="userSpaceOnUse" x="308" y="861" width="58" height="30">
<ellipse cx="337" cy="876" rx="29" ry="15" fill="#C4C4C4"/>
</mask>
<g mask="url(#mask3_4_458955)">
<ellipse cx="337" cy="876" rx="29" ry="15" fill="url(#paint0_linear_4_458955)"/>
<g opacity="0.3" filter="url(#filter3_dd_4_458955)">
<ellipse cx="340.5" cy="877.5" rx="12.5" ry="19.5" fill="url(#paint1_linear_4_458955)"/>
</g>
<g filter="url(#filter4_d_4_458955)">
<path d="M335 880.5C335 891.27 333.404 900 326.5 900C319.596 900 317 891.27 317 880.5C317 869.73 319.596 861 326.5 861C333.404 861 335 869.73 335 880.5Z" fill="#4D4F5B"/>
</g>
<path d="M328 881.5C328 892.27 326.404 901 319.5 901C312.596 901 310 892.27 310 881.5C310 870.73 312.596 862 319.5 862C326.404 862 328 870.73 328 881.5Z" fill="url(#paint2_linear_4_458955)"/>
<path d="M333 884.5C333 895.27 331.404 904 324.5 904C317.596 904 315 895.27 315 884.5C315 873.73 317.596 865 324.5 865C331.404 865 333 873.73 333 884.5Z" fill="url(#paint3_linear_4_458955)"/>
<ellipse cx="301.5" cy="880.5" rx="12.5" ry="19.5" fill="url(#paint4_linear_4_458955)"/>
<g filter="url(#filter5_dd_4_458955)">
<path d="M310.333 884.049C303.078 886.601 301.218 895.746 301.195 900C300.296 887.739 295.256 886.072 292 884.049C292.145 882.204 292.534 877.595 292.929 873.924C293.25 877.419 294.071 880.859 294.442 882.142C294.702 882.007 295.284 881.737 295.531 881.737C296.277 879.426 296.712 873.924 297.079 870.248C297.137 873.276 298.226 879.957 298.501 881.136C298.833 880.974 299.246 881.136 299.59 881.136C300.519 878.223 300.702 873.369 301.195 867C301.344 873.935 302.629 880.581 302.743 881.136C302.961 881.136 303.271 881.044 303.832 881.136C304.486 879.356 305.002 872.987 305.197 870.248C305.747 876.194 306.557 880.385 306.894 881.737C306.978 881.745 307.306 881.837 307.949 882.142C308.625 880.709 308.751 878.05 309.405 873.924C309.622 874.236 310.081 880.235 310.333 884.049Z" fill="#FFFFE8"/>
</g>
<g filter="url(#filter6_dd_4_458955)">
<ellipse cx="345.5" cy="880.5" rx="12.5" ry="19.5" fill="url(#paint5_linear_4_458955)"/>
</g>
<g filter="url(#filter7_ddd_4_458955)">
<path d="M353 882.049C347.064 884.601 345.542 893.746 345.523 898C344.788 885.739 340.664 884.072 338 882.049C338.119 880.204 338.437 875.595 338.76 871.924C339.023 875.419 339.695 878.859 339.998 880.142C340.211 880.007 340.687 879.737 340.889 879.737C341.499 877.426 341.856 871.924 342.156 868.248C342.203 871.276 343.094 877.957 343.319 879.136C343.591 878.974 343.929 879.136 344.21 879.136C344.97 876.223 345.12 871.369 345.523 865C345.645 871.935 346.696 878.581 346.79 879.136C346.968 879.136 347.221 879.044 347.681 879.136C348.216 877.356 348.638 870.987 348.797 868.248C349.248 874.194 349.911 878.385 350.186 879.737C350.255 879.745 350.523 879.837 351.049 880.142C351.602 878.709 351.705 876.05 352.24 871.924C352.418 872.236 352.794 878.235 353 882.049Z" fill="#FFFFE8"/>
</g>
<path d="M375 884.5C375 895.27 373.404 904 366.5 904C359.596 904 357 895.27 357 884.5C357 873.73 359.596 865 366.5 865C373.404 865 375 873.73 375 884.5Z" fill="url(#paint6_linear_4_458955)"/>
<g filter="url(#filter8_d_4_458955)">
<path d="M369.569 885.603C368.613 886.576 367.437 887.062 366.039 887.062C364.47 887.062 363.225 886.525 362.304 885.45C361.435 884.427 361 883.123 361 881.538C361 879.833 361.742 877.888 363.225 875.706C364.435 873.916 365.859 872.347 367.496 871C367.257 872.091 367.138 872.867 367.138 873.327C367.138 874.385 367.47 875.416 368.135 876.422C368.954 877.616 369.576 878.503 370.003 879.082C370.668 880.088 371 881.069 371 882.023C371 883.438 370.523 884.632 369.568 885.603L369.569 885.603ZM369.543 880.143C369.287 879.572 368.989 879.193 368.647 879.005C368.699 879.107 368.724 879.252 368.724 879.44C368.724 879.798 368.622 880.309 368.417 880.974L368.085 881.997C368.085 882.594 368.383 882.893 368.98 882.893C369.611 882.893 369.926 882.475 369.926 881.639C369.926 881.213 369.799 880.715 369.543 880.143" fill="url(#paint7_linear_4_458955)"/>
</g>
</g>
<g filter="url(#filter9_d_4_458955)">
<path d="M327.569 885.603C326.613 886.576 325.437 887.062 324.039 887.062C322.47 887.062 321.225 886.525 320.304 885.45C319.435 884.427 319 883.123 319 881.538C319 879.833 319.742 877.888 321.225 875.706C322.435 873.916 323.859 872.347 325.496 871C325.257 872.091 325.138 872.867 325.138 873.327C325.138 874.385 325.47 875.416 326.135 876.422C326.954 877.616 327.576 878.503 328.003 879.082C328.668 880.088 329 881.069 329 882.023C329 883.438 328.523 884.632 327.568 885.603L327.569 885.603ZM327.543 880.143C327.287 879.572 326.989 879.193 326.647 879.005C326.699 879.107 326.724 879.252 326.724 879.44C326.724 879.798 326.622 880.309 326.417 880.974L326.085 881.997C326.085 882.594 326.383 882.893 326.98 882.893C327.611 882.893 327.926 882.475 327.926 881.639C327.926 881.213 327.799 880.715 327.543 880.143" fill="url(#paint8_linear_4_458955)"/>
</g>
</g>
<g filter="url(#filter10_iiii_4_458955)">
<path d="M50 47H623C623 47 633 56 633 73C633 90 623 99 623 99H50C50 99 40 90 40 73C40 56 50 47 50 47Z" fill="#F2F1EF"/>
</g>
<path d="M50 46H49.6163L49.331 46.2567L50 47C49.331 46.2567 49.3307 46.257 49.3302 46.2574L49.3292 46.2583L49.3265 46.2608L49.3183 46.2683L49.2913 46.2931C49.2687 46.3141 49.2368 46.344 49.1964 46.3826C49.1156 46.46 49.0004 46.5726 48.8558 46.7204C48.5665 47.0158 48.1593 47.4517 47.6737 48.0264C46.7027 49.1754 45.4161 50.8812 44.1318 53.1289C41.5615 57.6268 39 64.2962 39 73C39 81.7038 41.5615 88.3732 44.1318 92.8711C45.4161 95.1188 46.7027 96.8246 47.6737 97.9736C48.1593 98.5483 48.5665 98.9842 48.8558 99.2797C49.0004 99.4274 49.1156 99.54 49.1964 99.6174C49.2368 99.656 49.2687 99.6859 49.2913 99.7069L49.3183 99.7317L49.3265 99.7392L49.3292 99.7416L49.3302 99.7426C49.3307 99.743 49.331 99.7433 50 99L49.331 99.7433L49.6163 100H50H623H623.384L623.669 99.7433L623 99C623.669 99.7433 623.669 99.743 623.67 99.7426L623.671 99.7416L623.674 99.7392L623.682 99.7317L623.709 99.7069C623.731 99.6859 623.763 99.656 623.804 99.6174C623.884 99.54 624 99.4274 624.144 99.2797C624.433 98.9842 624.841 98.5483 625.326 97.9736C626.297 96.8246 627.584 95.1188 628.868 92.8711C631.438 88.3732 634 81.7038 634 73C634 64.2962 631.438 57.6268 628.868 53.1289C627.584 50.8812 626.297 49.1754 625.326 48.0264C624.841 47.4517 624.433 47.0158 624.144 46.7204C624 46.5726 623.884 46.46 623.804 46.3826C623.763 46.344 623.731 46.3141 623.709 46.2931L623.682 46.2683L623.674 46.2608L623.671 46.2583L623.67 46.2574C623.669 46.257 623.669 46.2567 623 47L623.669 46.2567L623.384 46H623H50Z" stroke="black" stroke-width="2"/>
<g filter="url(#filter11_iiii_4_458955)">
<path d="M50 528H623C623 528 633 537 633 554C633 571 623 580 623 580H50C50 580 40 571 40 554C40 537 50 528 50 528Z" fill="#F2F1EF"/>
</g>
<path d="M50 527H49.6163L49.331 527.257L50 528C49.331 527.257 49.3307 527.257 49.3302 527.257L49.3292 527.258L49.3265 527.261L49.3183 527.268L49.2913 527.293C49.2687 527.314 49.2368 527.344 49.1964 527.383C49.1156 527.46 49.0004 527.573 48.8558 527.72C48.5665 528.016 48.1593 528.452 47.6737 529.026C46.7027 530.175 45.4161 531.881 44.1318 534.129C41.5615 538.627 39 545.296 39 554C39 562.704 41.5615 569.373 44.1318 573.871C45.4161 576.119 46.7027 577.825 47.6737 578.974C48.1593 579.548 48.5665 579.984 48.8558 580.28C49.0004 580.427 49.1156 580.54 49.1964 580.617C49.2368 580.656 49.2687 580.686 49.2913 580.707L49.3183 580.732L49.3265 580.739L49.3292 580.742L49.3302 580.743C49.3307 580.743 49.331 580.743 50 580L49.331 580.743L49.6163 581H50H623H623.384L623.669 580.743L623 580C623.669 580.743 623.669 580.743 623.67 580.743L623.671 580.742L623.674 580.739L623.682 580.732L623.709 580.707C623.731 580.686 623.763 580.656 623.804 580.617C623.884 580.54 624 580.427 624.144 580.28C624.433 579.984 624.841 579.548 625.326 578.974C626.297 577.825 627.584 576.119 628.868 573.871C631.438 569.373 634 562.704 634 554C634 545.296 631.438 538.627 628.868 534.129C627.584 531.881 626.297 530.175 625.326 529.026C624.841 528.452 624.433 528.016 624.144 527.72C624 527.573 623.884 527.46 623.804 527.383C623.763 527.344 623.731 527.314 623.709 527.293L623.682 527.268L623.674 527.261L623.671 527.258L623.67 527.257C623.669 527.257 623.669 527.257 623 528L623.669 527.257L623.384 527H623H50Z" stroke="black" stroke-width="2"/>
<g filter="url(#filter12_dii_4_458955)">
<path d="M531.954 834.111C532.452 833.384 533.284 833 534.166 833H626.834C627.716 833 628.548 833.384 629.046 834.111C631.045 837.033 636 845.668 636 859.5C636 873.332 631.045 881.967 629.046 884.889C628.548 885.616 627.716 886 626.834 886H534.166C533.284 886 532.452 885.616 531.954 884.889C529.955 881.967 525 873.332 525 859.5C525 845.668 529.955 837.033 531.954 834.111Z" fill="#F6FCFC"/>
</g>
<g filter="url(#filter13_ii_4_458955)">
<path d="M534.516 838.168C535.002 837.407 535.854 837 536.757 837H624.243C625.146 837 625.998 837.407 626.484 838.168C628.193 840.846 632 848.091 632 859.5C632 870.909 628.193 878.154 626.484 880.832C625.998 881.593 625.146 882 624.243 882H536.757C535.854 882 535.002 881.593 534.516 880.832C532.807 878.154 529 870.909 529 859.5C529 848.091 532.807 840.846 534.516 838.168Z" fill="#F2F1EF"/>
</g>
<defs>
<filter id="filter0_ii_4_458955" x="49.5" y="582.5" width="573" height="285" filterUnits="userSpaceOnUse" color-interpolation-filters="sRGB">
<feFlood flood-opacity="0" result="BackgroundImageFix"/>
<feBlend mode="normal" in="SourceGraphic" in2="BackgroundImageFix" result="shape"/>
<feColorMatrix in="SourceAlpha" type="matrix" values="0 0 0 0 0 0 0 0 0 0 0 0 0 0 0 0 0 0 127 0" result="hardAlpha"/>
<feOffset dx="-3" dy="3"/>
<feGaussianBlur stdDeviation="1.5"/>
<feComposite in2="hardAlpha" operator="arithmetic" k2="-1" k3="1"/>
<feColorMatrix type="matrix" values="0 0 0 0 0.333333 0 0 0 0 0.333333 0 0 0 0 0.333333 0 0 0 0.45 0"/>
<feBlend mode="normal" in2="shape" result="effect1_innerShadow_4_458955"/>
<feColorMatrix in="SourceAlpha" type="matrix" values="0 0 0 0 0 0 0 0 0 0 0 0 0 0 0 0 0 0 127 0" result="hardAlpha"/>
<feOffset dx="1" dy="-3"/>
<feGaussianBlur stdDeviation="1.5"/>
<feComposite in2="hardAlpha" operator="arithmetic" k2="-1" k3="1"/>
<feColorMatrix type="matrix" values="0 0 0 0 1 0 0 0 0 1 0 0 0 0 1 0 0 0 0.3 0"/>
<feBlend mode="lighten" in2="effect1_innerShadow_4_458955" result="effect2_innerShadow_4_458955"/>
</filter>
<filter id="filter1_dd_4_458955" x="27.5" y="35.4976" width="616.5" height="841.002" filterUnits="userSpaceOnUse" color-interpolation-filters="sRGB">
<feFlood flood-opacity="0" result="BackgroundImageFix"/>
<feColorMatrix in="SourceAlpha" type="matrix" values="0 0 0 0 0 0 0 0 0 0 0 0 0 0 0 0 0 0 127 0" result="hardAlpha"/>
<feOffset dx="-4" dy="4"/>
<feGaussianBlur stdDeviation="1"/>
<feColorMatrix type="matrix" values="0 0 0 0 0 0 0 0 0 0 0 0 0 0 0 0 0 0 0.7 0"/>
<feBlend mode="normal" in2="BackgroundImageFix" result="effect1_dropShadow_4_458955"/>
<feColorMatrix in="SourceAlpha" type="matrix" values="0 0 0 0 0 0 0 0 0 0 0 0 0 0 0 0 0 0 127 0" result="hardAlpha"/>
<feOffset dx="3.5" dy="-3"/>
<feGaussianBlur stdDeviation="0.5"/>
<feColorMatrix type="matrix" values="0 0 0 0 1 0 0 0 0 1 0 0 0 0 1 0 0 0 0.2 0"/>
<feBlend mode="lighten" in2="effect1_dropShadow_4_458955" result="effect2_dropShadow_4_458955"/>
<feBlend mode="normal" in="SourceGraphic" in2="effect2_dropShadow_4_458955" result="shape"/>
</filter>
<filter id="filter2_d_4_458955" x="33.5" y="35.4976" width="610.5" height="835.002" filterUnits="userSpaceOnUse" color-interpolation-filters="sRGB">
<feFlood flood-opacity="0" result="BackgroundImageFix"/>
<feColorMatrix in="SourceAlpha" type="matrix" values="0 0 0 0 0 0 0 0 0 0 0 0 0 0 0 0 0 0 127 0" result="hardAlpha"/>
<feOffset dx="3.5" dy="-3"/>
<feGaussianBlur stdDeviation="0.5"/>
<feColorMatrix type="matrix" values="0 0 0 0 1 0 0 0 0 1 0 0 0 0 1 0 0 0 0.2 0"/>
<feBlend mode="lighten" in2="BackgroundImageFix" result="effect1_dropShadow_4_458955"/>
<feBlend mode="normal" in="SourceGraphic" in2="effect1_dropShadow_4_458955" result="shape"/>
</filter>
<filter id="filter3_dd_4_458955" x="326" y="858" width="29" height="41" filterUnits="userSpaceOnUse" color-interpolation-filters="sRGB">
<feFlood flood-opacity="0" result="BackgroundImageFix"/>
<feColorMatrix in="SourceAlpha" type="matrix" values="0 0 0 0 0 0 0 0 0 0 0 0 0 0 0 0 0 0 127 0" result="hardAlpha"/>
<feOffset dx="-1" dy="1"/>
<feGaussianBlur stdDeviation="0.5"/>
<feColorMatrix type="matrix" values="0 0 0 0 1 0 0 0 0 1 0 0 0 0 1 0 0 0 0.6 0"/>
<feBlend mode="normal" in2="BackgroundImageFix" result="effect1_dropShadow_4_458955"/>
<feColorMatrix in="SourceAlpha" type="matrix" values="0 0 0 0 0 0 0 0 0 0 0 0 0 0 0 0 0 0 127 0" result="hardAlpha"/>
<feOffset dx="1" dy="1"/>
<feGaussianBlur stdDeviation="0.5"/>
<feColorMatrix type="matrix" values="0 0 0 0 1 0 0 0 0 1 0 0 0 0 1 0 0 0 0.6 0"/>
<feBlend mode="normal" in2="effect1_dropShadow_4_458955" result="effect2_dropShadow_4_458955"/>
<feBlend mode="normal" in="SourceGraphic" in2="effect2_dropShadow_4_458955" result="shape"/>
</filter>
<filter id="filter4_d_4_458955" x="317" y="861" width="21" height="41" filterUnits="userSpaceOnUse" color-interpolation-filters="sRGB">
<feFlood flood-opacity="0" result="BackgroundImageFix"/>
<feColorMatrix in="SourceAlpha" type="matrix" values="0 0 0 0 0 0 0 0 0 0 0 0 0 0 0 0 0 0 127 0" result="hardAlpha"/>
<feOffset dx="2" dy="1"/>
<feGaussianBlur stdDeviation="0.5"/>
<feColorMatrix type="matrix" values="0 0 0 0 1 0 0 0 0 1 0 0 0 0 1 0 0 0 0.6 0"/>
<feBlend mode="normal" in2="BackgroundImageFix" result="effect1_dropShadow_4_458955"/>
<feBlend mode="normal" in="SourceGraphic" in2="effect1_dropShadow_4_458955" result="shape"/>
</filter>
<filter id="filter5_dd_4_458955" x="291" y="867" width="20.3333" height="34" filterUnits="userSpaceOnUse" color-interpolation-filters="sRGB">
<feFlood flood-opacity="0" result="BackgroundImageFix"/>
<feColorMatrix in="SourceAlpha" type="matrix" values="0 0 0 0 0 0 0 0 0 0 0 0 0 0 0 0 0 0 127 0" result="hardAlpha"/>
<feOffset dx="-1" dy="1"/>
<feColorMatrix type="matrix" values="0 0 0 0 0.45098 0 0 0 0 0.533333 0 0 0 0 0.505882 0 0 0 1 0"/>
<feBlend mode="normal" in2="BackgroundImageFix" result="effect1_dropShadow_4_458955"/>
<feColorMatrix in="SourceAlpha" type="matrix" values="0 0 0 0 0 0 0 0 0 0 0 0 0 0 0 0 0 0 127 0" result="hardAlpha"/>
<feOffset dx="1" dy="1"/>
<feColorMatrix type="matrix" values="0 0 0 0 0.67451 0 0 0 0 0.690196 0 0 0 0 0.737255 0 0 0 1 0"/>
<feBlend mode="normal" in2="effect1_dropShadow_4_458955" result="effect2_dropShadow_4_458955"/>
<feBlend mode="normal" in="SourceGraphic" in2="effect2_dropShadow_4_458955" result="shape"/>
</filter>
<filter id="filter6_dd_4_458955" x="331" y="861" width="29" height="41" filterUnits="userSpaceOnUse" color-interpolation-filters="sRGB">
<feFlood flood-opacity="0" result="BackgroundImageFix"/>
<feColorMatrix in="SourceAlpha" type="matrix" values="0 0 0 0 0 0 0 0 0 0 0 0 0 0 0 0 0 0 127 0" result="hardAlpha"/>
<feOffset dx="-1" dy="1"/>
<feGaussianBlur stdDeviation="0.5"/>
<feColorMatrix type="matrix" values="0 0 0 0 1 0 0 0 0 1 0 0 0 0 1 0 0 0 0.6 0"/>
<feBlend mode="normal" in2="BackgroundImageFix" result="effect1_dropShadow_4_458955"/>
<feColorMatrix in="SourceAlpha" type="matrix" values="0 0 0 0 0 0 0 0 0 0 0 0 0 0 0 0 0 0 127 0" result="hardAlpha"/>
<feOffset dx="1" dy="1"/>
<feGaussianBlur stdDeviation="0.5"/>
<feColorMatrix type="matrix" values="0 0 0 0 1 0 0 0 0 1 0 0 0 0 1 0 0 0 0.6 0"/>
<feBlend mode="normal" in2="effect1_dropShadow_4_458955" result="effect2_dropShadow_4_458955"/>
<feBlend mode="normal" in="SourceGraphic" in2="effect2_dropShadow_4_458955" result="shape"/>
</filter>
<filter id="filter7_ddd_4_458955" x="336" y="865" width="18" height="35" filterUnits="userSpaceOnUse" color-interpolation-filters="sRGB">
<feFlood flood-opacity="0" result="BackgroundImageFix"/>
<feColorMatrix in="SourceAlpha" type="matrix" values="0 0 0 0 0 0 0 0 0 0 0 0 0 0 0 0 0 0 127 0" result="hardAlpha"/>
<feOffset dx="-1" dy="1"/>
<feColorMatrix type="matrix" values="0 0 0 0 0.45098 0 0 0 0 0.533333 0 0 0 0 0.505882 0 0 0 0.2 0"/>
<feBlend mode="normal" in2="BackgroundImageFix" result="effect1_dropShadow_4_458955"/>
<feColorMatrix in="SourceAlpha" type="matrix" values="0 0 0 0 0 0 0 0 0 0 0 0 0 0 0 0 0 0 127 0" result="hardAlpha"/>
<feOffset dx="1" dy="1"/>
<feColorMatrix type="matrix" values="0 0 0 0 0.67451 0 0 0 0 0.690196 0 0 0 0 0.737255 0 0 0 0.6 0"/>
<feBlend mode="normal" in2="effect1_dropShadow_4_458955" result="effect2_dropShadow_4_458955"/>
<feColorMatrix in="SourceAlpha" type="matrix" values="0 0 0 0 0 0 0 0 0 0 0 0 0 0 0 0 0 0 127 0" result="hardAlpha"/>
<feOffset dx="-1" dy="1"/>
<feGaussianBlur stdDeviation="0.5"/>
<feColorMatrix type="matrix" values="0 0 0 0 1 0 0 0 0 1 0 0 0 0 1 0 0 0 0.6 0"/>
<feBlend mode="normal" in2="effect2_dropShadow_4_458955" result="effect3_dropShadow_4_458955"/>
<feBlend mode="normal" in="SourceGraphic" in2="effect3_dropShadow_4_458955" result="shape"/>
</filter>
<filter id="filter8_d_4_458955" x="359" y="871" width="12" height="18.0616" filterUnits="userSpaceOnUse" color-interpolation-filters="sRGB">
<feFlood flood-opacity="0" result="BackgroundImageFix"/>
<feColorMatrix in="SourceAlpha" type="matrix" values="0 0 0 0 0 0 0 0 0 0 0 0 0 0 0 0 0 0 127 0" result="hardAlpha"/>
<feOffset dx="-1" dy="1"/>
<feGaussianBlur stdDeviation="0.5"/>
<feColorMatrix type="matrix" values="0 0 0 0 1 0 0 0 0 1 0 0 0 0 1 0 0 0 0.6 0"/>
<feBlend mode="normal" in2="BackgroundImageFix" result="effect1_dropShadow_4_458955"/>
<feBlend mode="normal" in="SourceGraphic" in2="effect1_dropShadow_4_458955" result="shape"/>
</filter>
<filter id="filter9_d_4_458955" x="317" y="871" width="12" height="18.0616" filterUnits="userSpaceOnUse" color-interpolation-filters="sRGB">
<feFlood flood-opacity="0" result="BackgroundImageFix"/>
<feColorMatrix in="SourceAlpha" type="matrix" values="0 0 0 0 0 0 0 0 0 0 0 0 0 0 0 0 0 0 127 0" result="hardAlpha"/>
<feOffset dx="-1" dy="1"/>
<feGaussianBlur stdDeviation="0.5"/>
<feColorMatrix type="matrix" values="0 0 0 0 1 0 0 0 0 1 0 0 0 0 1 0 0 0 0.6 0"/>
<feBlend mode="normal" in2="BackgroundImageFix" result="effect1_dropShadow_4_458955"/>
<feBlend mode="normal" in="SourceGraphic" in2="effect1_dropShadow_4_458955" result="shape"/>
</filter>
<filter id="filter10_iiii_4_458955" x="36" y="43" width="601" height="60" filterUnits="userSpaceOnUse" color-interpolation-filters="sRGB">
<feFlood flood-opacity="0" result="BackgroundImageFix"/>
<feBlend mode="normal" in="SourceGraphic" in2="BackgroundImageFix" result="shape"/>
<feColorMatrix in="SourceAlpha" type="matrix" values="0 0 0 0 0 0 0 0 0 0 0 0 0 0 0 0 0 0 127 0" result="hardAlpha"/>
<feOffset dy="-6"/>
<feGaussianBlur stdDeviation="1"/>
<feComposite in2="hardAlpha" operator="arithmetic" k2="-1" k3="1"/>
<feColorMatrix type="matrix" values="0 0 0 0 0.2 0 0 0 0 0.2 0 0 0 0 0.2 0 0 0 0.5 0"/>
<feBlend mode="normal" in2="shape" result="effect1_innerShadow_4_458955"/>
<feColorMatrix in="SourceAlpha" type="matrix" values="0 0 0 0 0 0 0 0 0 0 0 0 0 0 0 0 0 0 127 0" result="hardAlpha"/>
<feOffset dx="6"/>
<feGaussianBlur stdDeviation="1"/>
<feComposite in2="hardAlpha" operator="arithmetic" k2="-1" k3="1"/>
<feColorMatrix type="matrix" values="0 0 0 0 0.266667 0 0 0 0 0.266667 0 0 0 0 0.266667 0 0 0 0.2 0"/>
<feBlend mode="normal" in2="effect1_innerShadow_4_458955" result="effect2_innerShadow_4_458955"/>
<feColorMatrix in="SourceAlpha" type="matrix" values="0 0 0 0 0 0 0 0 0 0 0 0 0 0 0 0 0 0 127 0" result="hardAlpha"/>
<feOffset dx="6" dy="-6"/>
<feGaussianBlur stdDeviation="1"/>
<feComposite in2="hardAlpha" operator="arithmetic" k2="-1" k3="1"/>
<feColorMatrix type="matrix" values="0 0 0 0 0.266667 0 0 0 0 0.266667 0 0 0 0 0.266667 0 0 0 0.2 0"/>
<feBlend mode="normal" in2="effect2_innerShadow_4_458955" result="effect3_innerShadow_4_458955"/>
<feColorMatrix in="SourceAlpha" type="matrix" values="0 0 0 0 0 0 0 0 0 0 0 0 0 0 0 0 0 0 127 0" result="hardAlpha"/>
<feOffset dx="-2" dy="6"/>
<feGaussianBlur stdDeviation="1"/>
<feComposite in2="hardAlpha" operator="arithmetic" k2="-1" k3="1"/>
<feColorMatrix type="matrix" values="0 0 0 0 1 0 0 0 0 1 0 0 0 0 1 0 0 0 0.4 0"/>
<feBlend mode="lighten" in2="effect3_innerShadow_4_458955" result="effect4_innerShadow_4_458955"/>
</filter>
<filter id="filter11_iiii_4_458955" x="36" y="524" width="601" height="60" filterUnits="userSpaceOnUse" color-interpolation-filters="sRGB">
<feFlood flood-opacity="0" result="BackgroundImageFix"/>
<feBlend mode="normal" in="SourceGraphic" in2="BackgroundImageFix" result="shape"/>
<feColorMatrix in="SourceAlpha" type="matrix" values="0 0 0 0 0 0 0 0 0 0 0 0 0 0 0 0 0 0 127 0" result="hardAlpha"/>
<feOffset dy="-6"/>
<feGaussianBlur stdDeviation="1"/>
<feComposite in2="hardAlpha" operator="arithmetic" k2="-1" k3="1"/>
<feColorMatrix type="matrix" values="0 0 0 0 0.2 0 0 0 0 0.2 0 0 0 0 0.2 0 0 0 0.5 0"/>
<feBlend mode="normal" in2="shape" result="effect1_innerShadow_4_458955"/>
<feColorMatrix in="SourceAlpha" type="matrix" values="0 0 0 0 0 0 0 0 0 0 0 0 0 0 0 0 0 0 127 0" result="hardAlpha"/>
<feOffset dx="6"/>
<feGaussianBlur stdDeviation="1"/>
<feComposite in2="hardAlpha" operator="arithmetic" k2="-1" k3="1"/>
<feColorMatrix type="matrix" values="0 0 0 0 0.266667 0 0 0 0 0.266667 0 0 0 0 0.266667 0 0 0 0.2 0"/>
<feBlend mode="normal" in2="effect1_innerShadow_4_458955" result="effect2_innerShadow_4_458955"/>
<feColorMatrix in="SourceAlpha" type="matrix" values="0 0 0 0 0 0 0 0 0 0 0 0 0 0 0 0 0 0 127 0" result="hardAlpha"/>
<feOffset dx="6" dy="-6"/>
<feGaussianBlur stdDeviation="1"/>
<feComposite in2="hardAlpha" operator="arithmetic" k2="-1" k3="1"/>
<feColorMatrix type="matrix" values="0 0 0 0 0.266667 0 0 0 0 0.266667 0 0 0 0 0.266667 0 0 0 0.2 0"/>
<feBlend mode="normal" in2="effect2_innerShadow_4_458955" result="effect3_innerShadow_4_458955"/>
<feColorMatrix in="SourceAlpha" type="matrix" values="0 0 0 0 0 0 0 0 0 0 0 0 0 0 0 0 0 0 127 0" result="hardAlpha"/>
<feOffset dx="-2" dy="6"/>
<feGaussianBlur stdDeviation="1"/>
<feComposite in2="hardAlpha" operator="arithmetic" k2="-1" k3="1"/>
<feColorMatrix type="matrix" values="0 0 0 0 1 0 0 0 0 1 0 0 0 0 1 0 0 0 0.4 0"/>
<feBlend mode="lighten" in2="effect3_innerShadow_4_458955" result="effect4_innerShadow_4_458955"/>
</filter>
<filter id="filter12_dii_4_458955" x="517" y="831" width="121" height="63" filterUnits="userSpaceOnUse" color-interpolation-filters="sRGB">
<feFlood flood-opacity="0" result="BackgroundImageFix"/>
<feColorMatrix in="SourceAlpha" type="matrix" values="0 0 0 0 0 0 0 0 0 0 0 0 0 0 0 0 0 0 127 0" result="hardAlpha"/>
<feOffset dx="-4" dy="4"/>
<feGaussianBlur stdDeviation="2"/>
<feColorMatrix type="matrix" values="0 0 0 0 0 0 0 0 0 0 0 0 0 0 0 0 0 0 0.4 0"/>
<feBlend mode="normal" in2="BackgroundImageFix" result="effect1_dropShadow_4_458955"/>
<feBlend mode="normal" in="SourceGraphic" in2="effect1_dropShadow_4_458955" result="shape"/>
<feColorMatrix in="SourceAlpha" type="matrix" values="0 0 0 0 0 0 0 0 0 0 0 0 0 0 0 0 0 0 127 0" result="hardAlpha"/>
<feOffset dx="2" dy="-2"/>
<feGaussianBlur stdDeviation="1.5"/>
<feComposite in2="hardAlpha" operator="arithmetic" k2="-1" k3="1"/>
<feColorMatrix type="matrix" values="0 0 0 0 0 0 0 0 0 0 0 0 0 0 0 0 0 0 0.3 0"/>
<feBlend mode="normal" in2="shape" result="effect2_innerShadow_4_458955"/>
<feColorMatrix in="SourceAlpha" type="matrix" values="0 0 0 0 0 0 0 0 0 0 0 0 0 0 0 0 0 0 127 0" result="hardAlpha"/>
<feOffset dx="-2" dy="3"/>
<feGaussianBlur stdDeviation="1"/>
<feComposite in2="hardAlpha" operator="arithmetic" k2="-1" k3="1"/>
<feColorMatrix type="matrix" values="0 0 0 0 1 0 0 0 0 1 0 0 0 0 1 0 0 0 0.4 0"/>
<feBlend mode="normal" in2="effect2_innerShadow_4_458955" result="effect3_innerShadow_4_458955"/>
</filter>
<filter id="filter13_ii_4_458955" x="527" y="835" width="107" height="51" filterUnits="userSpaceOnUse" color-interpolation-filters="sRGB">
<feFlood flood-opacity="0" result="BackgroundImageFix"/>
<feBlend mode="normal" in="SourceGraphic" in2="BackgroundImageFix" result="shape"/>
<feColorMatrix in="SourceAlpha" type="matrix" values="0 0 0 0 0 0 0 0 0 0 0 0 0 0 0 0 0 0 127 0" result="hardAlpha"/>
<feOffset dx="-2" dy="4"/>
<feGaussianBlur stdDeviation="2"/>
<feComposite in2="hardAlpha" operator="arithmetic" k2="-1" k3="1"/>
<feColorMatrix type="matrix" values="0 0 0 0 0.137255 0 0 0 0 0.137255 0 0 0 0 0.137255 0 0 0 0.7 0"/>
<feBlend mode="darken" in2="shape" result="effect1_innerShadow_4_458955"/>
<feColorMatrix in="SourceAlpha" type="matrix" values="0 0 0 0 0 0 0 0 0 0 0 0 0 0 0 0 0 0 127 0" result="hardAlpha"/>
<feOffset dx="2" dy="-2"/>
<feGaussianBlur stdDeviation="1.5"/>
<feComposite in2="hardAlpha" operator="arithmetic" k2="-1" k3="1"/>
<feColorMatrix type="matrix" values="0 0 0 0 1 0 0 0 0 1 0 0 0 0 1 0 0 0 0.4 0"/>
<feBlend mode="lighten" in2="effect1_innerShadow_4_458955" result="effect2_innerShadow_4_458955"/>
</filter>
<linearGradient id="paint0_linear_4_458955" x1="332" y1="861" x2="354" y2="888.5" gradientUnits="userSpaceOnUse">
<stop stop-color="#D1CDDB"/>
<stop offset="0.479167" stop-color="#AFE1F1"/>
<stop offset="1" stop-color="#939BCC"/>
</linearGradient>
<linearGradient id="paint1_linear_4_458955" x1="333.5" y1="864" x2="349" y2="893.5" gradientUnits="userSpaceOnUse">
<stop stop-color="#464F58"/>
<stop offset="0.296875" stop-color="#4A5E83"/>
<stop offset="1" stop-color="#59608A"/>
</linearGradient>
<linearGradient id="paint2_linear_4_458955" x1="319" y1="862" x2="309" y2="890.5" gradientUnits="userSpaceOnUse">
<stop stop-color="#D4FFE9"/>
<stop offset="0.510417" stop-color="#CFFFFF"/>
</linearGradient>
<linearGradient id="paint3_linear_4_458955" x1="317.5" y1="871" x2="333" y2="900.5" gradientUnits="userSpaceOnUse">
<stop stop-color="#B7D8A5"/>
<stop offset="0.296875" stop-color="#D9F2B1"/>
<stop offset="1" stop-color="#F0FBAD"/>
</linearGradient>
<linearGradient id="paint4_linear_4_458955" x1="294.5" y1="867" x2="310" y2="896.5" gradientUnits="userSpaceOnUse">
<stop stop-color="#464F58"/>
<stop offset="0.296875" stop-color="#4A5E83"/>
<stop offset="1" stop-color="#59608A"/>
</linearGradient>
<linearGradient id="paint5_linear_4_458955" x1="338.5" y1="867" x2="354" y2="896.5" gradientUnits="userSpaceOnUse">
<stop stop-color="#464F58"/>
<stop offset="0.296875" stop-color="#4A5E83"/>
<stop offset="1" stop-color="#59608A"/>
</linearGradient>
<linearGradient id="paint6_linear_4_458955" x1="359.5" y1="871" x2="375" y2="900.5" gradientUnits="userSpaceOnUse">
<stop stop-color="#B7D8A5"/>
<stop offset="0.296875" stop-color="#D9F2B1"/>
<stop offset="1" stop-color="#F0FBAD"/>
</linearGradient>
<linearGradient id="paint7_linear_4_458955" x1="364.5" y1="874" x2="366" y2="887.062" gradientUnits="userSpaceOnUse">
<stop stop-color="#B2A2FB"/>
<stop offset="1" stop-color="#9A92E8"/>
</linearGradient>
<linearGradient id="paint8_linear_4_458955" x1="322.5" y1="874" x2="324" y2="887.062" gradientUnits="userSpaceOnUse">
<stop stop-color="#B2A2FB"/>
<stop offset="1" stop-color="#9A92E8"/>
</linearGradient>
<clipPath id="clip0_4_458955">
<rect width="624" height="865" fill="white" transform="translate(24 33)"/>
</clipPath>
<clipPath id="clip1_4_458955">
<rect width="624" height="865" fill="white" transform="translate(24 33)"/>
</clipPath>
</defs>
</svg>
