<?xml version="1.0" encoding="utf-8"?>
<svg viewBox="48.363 558.669 540.637 274.331" width="540.637px" height="274.331px" xmlns="http://www.w3.org/2000/svg">
  <path fill-rule="evenodd" clip-rule="evenodd" d="M588.679 833C588.774 832.456 588.881 831.906 589 831.356V833H588.679ZM60.5367 558.669C54.9178 558.669 48.3628 563.143 48.3628 568.663V813.354C57.4526 826.225 89.9174 827.597 104.977 828.233C105.884 828.271 106.728 828.307 107.5 828.342C146.587 830.132 211.404 831.521 318.443 831.521C512.523 831.521 567.796 826.956 582.563 823.71C586.562 822.831 586.543 818.252 586.525 814.147V814.141L586.525 814.095C586.524 813.846 586.523 813.599 586.523 813.354V568.663C586.523 563.143 581.968 558.669 576.349 558.669H60.5367Z" fill="black"/>
</svg>