<?xml version="1.0" standalone="no"?>
<!DOCTYPE svg PUBLIC "-//W3C//DTD SVG 20010904//EN"
 "http://www.w3.org/TR/2001/REC-SVG-20010904/DTD/svg10.dtd">
<svg version="1.0" xmlns="http://www.w3.org/2000/svg"
 width="1600.000000pt" height="1600.000000pt" viewBox="0 0 1600.000000 1600.000000"
 preserveAspectRatio="xMidYMid meet">
<metadata>
Created by potrace 1.14, written by Peter Selinger 2001-2017
</metadata>
<g transform="translate(0.000000,1600.000000) scale(0.100000,-0.100000)"
fill="#000000" stroke="none">
<path d="M8019 15878 c-3 -127 -17 -510 -24 -653 -2 -49 -7 -157 -10 -240 -3
-82 -8 -193 -10 -245 -3 -52 -7 -140 -10 -195 -8 -174 -15 -307 -20 -395 -12
-211 -16 -270 -19 -347 -3 -45 -7 -87 -10 -92 -4 -5 -2 -12 4 -16 6 -4 7 -12
3 -18 -4 -7 -8 -32 -9 -57 -1 -25 -4 -94 -8 -155 -4 -60 -10 -141 -12 -180 -3
-38 -7 -97 -9 -130 -2 -33 -6 -98 -10 -145 -3 -47 -7 -107 -10 -135 -2 -27 -7
-95 -10 -150 -4 -55 -8 -116 -10 -135 -2 -19 -6 -73 -10 -120 -3 -47 -8 -105
-10 -130 -2 -25 -7 -81 -10 -125 -3 -44 -8 -100 -11 -125 -2 -25 -7 -72 -9
-105 -3 -33 -7 -80 -10 -105 -2 -25 -7 -76 -11 -115 -4 -38 -8 -83 -9 -100 -8
-80 -17 -174 -20 -210 -1 -22 -5 -58 -9 -80 -3 -22 -8 -67 -11 -100 -2 -33 -7
-76 -10 -95 -3 -19 -8 -57 -10 -83 -5 -51 -12 -112 -19 -167 -2 -19 -7 -62
-11 -95 -4 -33 -8 -67 -10 -75 -3 -18 -14 -102 -20 -150 -6 -51 -15 -121 -20
-150 -3 -14 -7 -50 -11 -80 -3 -30 -8 -59 -11 -63 -3 -5 -7 -25 -9 -45 -9 -84
-20 -156 -31 -207 -2 -11 -6 -31 -8 -45 -3 -21 -15 -89 -41 -225 -2 -11 -7
-33 -10 -50 -4 -16 -8 -39 -8 -50 -1 -11 -4 -24 -8 -30 -3 -5 -9 -30 -13 -55
-4 -25 -19 -90 -32 -145 -14 -55 -26 -106 -26 -112 0 -7 -3 -13 -6 -14 -3 0
-24 -2 -46 -4 -22 -2 -76 -6 -120 -9 -44 -4 -105 -9 -135 -11 -76 -6 -187 -19
-275 -31 -22 -4 -58 -8 -80 -10 -22 -2 -59 -7 -82 -10 l-41 -6 -26 84 c-34
114 -70 261 -106 433 -12 55 -23 109 -26 120 -3 11 -7 31 -9 45 -2 14 -6 36
-9 50 -3 13 -8 42 -12 64 -3 22 -7 43 -9 46 -2 4 -6 26 -9 51 -3 24 -8 55 -11
69 -3 14 -7 41 -10 60 -3 19 -6 44 -9 55 -8 44 -20 131 -19 148 0 9 -2 17 -6
17 -3 0 -6 10 -7 23 -1 24 -12 109 -18 142 -2 11 -7 49 -11 85 -4 36 -9 74
-11 84 -2 11 -6 40 -9 65 -3 25 -7 62 -10 81 -2 19 -7 58 -10 85 -4 28 -8 61
-10 75 -2 14 -6 54 -10 90 -4 36 -9 79 -11 95 -3 27 -8 74 -19 185 -2 19 -6
58 -9 85 -4 28 -8 73 -11 100 -2 28 -6 75 -9 105 -7 66 -16 165 -22 240 -2 30
-6 73 -8 95 -3 22 -7 76 -10 120 -3 44 -8 105 -11 135 -5 53 -9 98 -20 255 -3
39 -7 102 -10 140 -3 39 -7 102 -10 140 -2 39 -7 102 -10 140 -3 39 -7 111
-10 160 -2 50 -5 90 -5 90 -2 0 -11 155 -15 250 -2 50 -4 90 -5 90 -1 0 -3 34
-5 75 -1 41 -6 136 -10 210 -10 214 -14 291 -14 348 -1 62 -16 71 -17 10 -1
-24 -4 -95 -8 -158 -6 -109 -9 -161 -21 -345 -10 -145 -15 -229 -20 -305 -2
-41 -5 -75 -5 -75 -1 0 -3 -29 -5 -65 -6 -108 -24 -352 -30 -400 -2 -19 -7
-71 -10 -115 -7 -103 -16 -210 -20 -255 -2 -19 -6 -66 -9 -105 -7 -77 -13
-145 -22 -232 -3 -32 -7 -78 -9 -103 -7 -82 -14 -157 -19 -201 -13 -114 -28
-250 -41 -389 -4 -36 -8 -76 -10 -90 -2 -14 -7 -47 -10 -75 -11 -91 -14 -120
-20 -165 -6 -44 -10 -80 -20 -170 -2 -25 -7 -56 -10 -70 -2 -13 -7 -49 -10
-80 -3 -31 -8 -67 -10 -80 -7 -35 -16 -98 -20 -145 -2 -22 -7 -51 -10 -65 -3
-14 -10 -57 -16 -97 -5 -39 -12 -82 -14 -94 -3 -12 -7 -45 -10 -72 -3 -28 -8
-54 -10 -57 -3 -4 -7 -27 -10 -51 -3 -24 -7 -51 -10 -59 -2 -8 -7 -35 -11 -60
-3 -25 -7 -49 -8 -55 -4 -15 -16 -77 -20 -105 -6 -35 -73 -352 -91 -430 -9
-36 -17 -74 -19 -85 -2 -11 -4 -20 -5 -20 -2 0 -4 -7 -6 -15 -12 -57 -49 -190
-60 -217 -8 -18 -12 -33 -9 -33 2 0 -2 -13 -11 -30 -8 -16 -14 -33 -13 -37 2
-4 -8 -36 -20 -69 l-24 -62 -171 -56 c-95 -32 -179 -60 -187 -63 -8 -4 -17 -7
-20 -8 -3 -1 -17 -6 -31 -12 -14 -6 -45 -17 -70 -24 -24 -7 -46 -15 -49 -19
-10 -11 -103 -38 -114 -34 -21 10 -157 333 -170 404 -2 14 -9 39 -16 55 -11
29 -14 40 -25 85 -2 12 -9 36 -15 55 -5 19 -14 50 -20 68 -10 33 -28 114 -36
157 -3 14 -11 50 -19 80 -8 30 -16 69 -19 85 -2 17 -5 30 -6 30 -1 0 -3 11 -5
25 -3 22 -16 92 -30 160 -3 14 -8 39 -10 55 -3 17 -7 41 -10 55 -3 14 -8 41
-11 60 -3 19 -7 46 -10 60 -2 14 -7 41 -10 60 -3 19 -7 46 -10 60 -2 14 -7 45
-10 70 -5 48 -12 85 -14 85 -1 0 -3 18 -6 40 -2 22 -8 69 -14 105 -5 36 -12
85 -15 110 -2 25 -7 54 -9 66 -2 11 -7 47 -10 79 -4 32 -9 72 -11 89 -3 17 -8
56 -11 86 -3 30 -7 71 -9 90 -6 53 -15 130 -20 180 -6 69 -16 152 -21 185 -2
17 -6 62 -9 100 -6 67 -10 119 -20 230 -3 28 -7 77 -10 110 -2 33 -7 87 -10
120 -3 33 -7 92 -10 130 -4 57 -11 162 -17 243 -3 32 -12 -5 -14 -56 -3 -60
-10 -164 -20 -272 -3 -36 -7 -87 -9 -115 -2 -27 -6 -77 -9 -110 -3 -33 -8 -96
-11 -140 -12 -152 -14 -190 -20 -255 -3 -36 -7 -94 -9 -130 -3 -36 -7 -92 -11
-125 -3 -33 -8 -89 -10 -125 -2 -36 -4 -65 -5 -65 -1 0 -3 -22 -5 -50 -4 -88
-15 -229 -20 -275 -2 -25 -7 -76 -10 -115 -4 -38 -9 -73 -11 -77 -3 -4 0 -8 6
-8 6 0 8 -5 4 -11 -7 -12 -10 -43 -19 -169 -2 -36 -4 -65 -5 -65 -1 0 -3 -22
-5 -50 -2 -27 -6 -88 -9 -135 -7 -82 -9 -119 -20 -245 -3 -33 -8 -100 -11
-150 -4 -49 -8 -106 -10 -125 -2 -19 -7 -78 -10 -130 -4 -52 -8 -111 -10 -130
-3 -31 -12 -137 -20 -245 -8 -106 -17 -223 -20 -255 -3 -30 -9 -109 -21 -250
-1 -19 -5 -75 -8 -125 -4 -49 -8 -114 -11 -143 -11 -126 -18 -221 -19 -266 -1
-45 1 -50 24 -57 14 -4 39 -12 55 -20 17 -7 32 -13 35 -14 46 -15 225 -100
228 -107 2 -5 7 -6 12 -3 5 3 16 -3 26 -12 10 -10 20 -17 23 -17 7 2 54 -18
61 -26 3 -3 34 -20 70 -38 79 -39 170 -90 190 -106 8 -6 31 -20 50 -30 97 -54
470 -306 470 -318 0 -5 6 -8 14 -8 8 0 16 -3 18 -7 2 -5 39 -35 83 -68 44 -33
93 -72 110 -87 49 -43 72 -62 95 -78 12 -8 39 -31 59 -50 21 -19 69 -62 107
-95 89 -77 439 -427 525 -525 75 -85 117 -134 145 -169 10 -13 24 -28 30 -35
5 -6 47 -58 93 -116 46 -58 92 -115 103 -128 10 -13 24 -34 30 -48 6 -13 15
-24 19 -24 5 0 15 -12 23 -27 8 -16 23 -37 33 -48 28 -31 83 -114 83 -125 0
-6 3 -10 8 -10 4 0 16 -15 27 -32 11 -18 27 -42 35 -55 44 -66 215 -340 227
-363 4 -8 26 -48 50 -88 24 -40 43 -76 43 -80 0 -4 9 -18 20 -32 11 -14 20
-32 20 -42 0 -9 3 -18 8 -20 4 -1 18 -25 32 -53 13 -27 32 -61 41 -75 9 -14
18 -29 20 -35 1 -5 28 -64 59 -130 58 -122 65 -139 120 -261 33 -71 39 -86
110 -264 75 -190 149 -395 191 -530 11 -36 23 -72 26 -80 3 -8 7 -19 8 -25 2
-5 10 -33 20 -61 9 -28 18 -60 20 -70 2 -10 4 -19 5 -19 1 0 3 -7 5 -15 2 -8
14 -49 26 -90 11 -41 25 -91 30 -110 5 -19 12 -43 14 -52 3 -10 7 -26 9 -35 3
-10 14 -56 26 -103 11 -47 23 -94 25 -105 3 -11 7 -29 10 -40 6 -24 44 -209
51 -245 3 -14 8 -34 11 -45 3 -11 7 -29 9 -40 1 -11 10 -60 19 -110 10 -49 19
-99 21 -110 4 -33 15 -96 20 -119 3 -11 7 -34 9 -51 5 -42 15 -106 20 -130 2
-11 7 -45 10 -75 9 -84 13 -115 15 -115 1 0 3 -11 5 -25 4 -43 15 -143 19
-180 16 -135 23 -199 30 -300 3 -36 8 -96 11 -135 17 -204 28 -422 29 -572 1
-147 12 -171 16 -36 7 238 23 546 35 667 3 33 8 94 11 135 9 130 22 253 29
286 3 11 7 47 10 80 2 33 7 72 10 87 3 16 6 46 8 68 1 22 4 40 7 40 3 0 5 10
6 23 3 60 8 107 13 107 4 0 7 17 7 38 1 38 5 61 29 197 18 100 27 153 31 185
1 14 3 25 4 25 3 0 17 70 26 125 3 19 12 60 19 90 7 30 16 69 19 85 9 51 14
74 76 319 33 131 63 242 66 247 3 5 7 22 10 37 3 15 7 34 11 42 3 8 7 20 8 25
7 29 57 193 65 210 5 11 14 38 20 60 26 89 137 396 167 463 8 18 16 41 18 51
2 10 8 27 14 37 6 11 29 64 51 119 23 55 59 137 81 183 21 45 39 89 39 97 0 8
5 15 10 15 6 0 10 5 10 11 0 29 268 538 356 676 19 29 30 53 26 53 -4 0 -2 4
4 8 6 4 46 63 89 132 43 69 81 127 85 130 6 5 99 141 115 168 6 9 12 19 15 22
3 3 48 62 100 133 52 70 98 127 102 127 4 0 8 6 8 14 0 8 3 16 8 18 4 2 36 39
72 83 66 81 117 140 158 181 12 13 22 25 22 28 0 20 388 406 559 556 41 36 82
72 91 80 18 17 220 179 298 238 53 41 94 69 262 182 186 125 195 130 305 195
70 41 411 220 425 223 3 0 32 13 65 27 33 15 85 36 115 47 54 20 84 43 75 58
-3 4 -7 52 -10 106 -2 55 -7 133 -10 174 -14 207 -21 307 -30 485 -3 50 -7
119 -9 155 -3 36 -7 115 -11 175 -3 61 -8 139 -11 175 -5 73 -12 193 -19 320
-11 185 -12 208 -19 218 -3 6 -2 13 4 17 6 4 7 11 4 17 -4 6 -8 45 -11 87 -5
110 -11 226 -17 306 -11 156 -18 284 -20 357 0 43 -3 78 -6 78 -3 0 -5 29 -4
65 0 36 -2 65 -5 65 -3 0 -7 37 -7 83 -1 45 -4 123 -8 172 -15 230 -18 285
-19 357 -1 43 -4 78 -7 78 -3 0 -6 21 -6 48 -1 74 -14 322 -19 356 -2 17 -7
83 -10 146 -3 63 -8 158 -11 210 -3 52 -6 116 -7 142 -1 26 -3 45 -6 42 -6 -5
-8 -24 -13 -121 -2 -35 -5 -63 -8 -63 -3 0 -5 -24 -6 -53 -1 -28 -4 -90 -9
-137 -4 -47 -8 -101 -10 -121 -1 -20 -4 -40 -7 -45 -2 -5 -4 -26 -3 -46 0 -21
-2 -38 -5 -38 -3 0 -5 -13 -4 -28 1 -26 -7 -105 -21 -227 -12 -105 -16 -128
-22 -138 -4 -6 -1 -7 7 -2 8 5 11 4 7 -2 -8 -13 -15 -54 -22 -128 -3 -33 -8
-67 -10 -75 -2 -8 -7 -43 -10 -77 -3 -34 -8 -71 -10 -82 -2 -11 -6 -44 -9 -73
-4 -29 -8 -62 -10 -73 -2 -11 -7 -42 -10 -70 -4 -27 -8 -61 -11 -75 -4 -23 -7
-42 -20 -135 -9 -63 -15 -100 -19 -125 -26 -138 -39 -219 -37 -237 0 -13 -4
-23 -10 -23 -5 0 -8 -4 -5 -9 4 -5 2 -31 -4 -58 -17 -85 -31 -153 -45 -228 -7
-36 -28 -130 -56 -245 -11 -47 -22 -94 -24 -105 -3 -11 -7 -29 -9 -40 -4 -16
-79 -275 -90 -310 -5 -16 -11 -33 -51 -145 -37 -102 -131 -310 -145 -320 -3
-3 -9 -13 -13 -22 -6 -18 -20 -16 -82 11 -11 5 -47 19 -80 31 -33 12 -68 26
-77 31 -10 5 -22 9 -27 9 -5 0 -22 5 -38 12 -15 6 -30 12 -33 13 -22 6 -58 18
-75 25 -11 5 -65 23 -121 41 l-101 32 -31 101 c-30 96 -97 353 -107 406 -3 14
-8 39 -11 55 -4 17 -8 39 -10 50 -1 11 -3 20 -4 20 -2 0 -6 18 -15 70 -3 22
-8 45 -9 50 -9 36 -21 100 -32 175 -4 30 -9 57 -9 60 -4 14 -15 80 -20 114 -3
21 -7 48 -10 60 -5 24 -15 89 -20 126 -3 23 -30 214 -41 285 -2 17 -6 48 -9
70 -2 22 -6 58 -9 80 -3 22 -8 60 -11 85 -3 25 -8 58 -11 73 -2 16 -7 57 -9
90 -3 34 -7 78 -10 97 -7 55 -16 131 -20 175 -1 22 -5 56 -8 75 -3 19 -9 71
-12 115 -4 44 -9 89 -11 100 -3 11 -7 54 -9 95 -3 41 -7 93 -9 115 -6 45 -14
141 -22 230 -5 59 -7 85 -19 220 -8 97 -14 178 -20 260 -2 39 -6 93 -9 120 -3
28 -8 91 -11 140 -3 50 -8 122 -11 160 -3 39 -7 97 -8 130 -2 33 -6 101 -10
150 -3 50 -8 128 -11 175 -3 47 -8 126 -11 175 -4 50 -7 127 -8 172 0 46 -3
83 -6 83 -3 0 -6 33 -6 73 -1 39 -5 133 -9 207 -8 162 -12 258 -14 324 -1 69
-13 50 -17 -26 -1 -35 -5 -101 -8 -148 -3 -47 -8 -130 -11 -185 -3 -55 -8
-127 -11 -160 -3 -33 -7 -85 -8 -115 -6 -97 -19 -285 -32 -440 -3 -36 -7 -94
-9 -129 -2 -35 -6 -89 -9 -120 -8 -80 -15 -166 -21 -239 -3 -35 -7 -68 -10
-73 -4 -5 -1 -9 5 -9 6 0 8 -5 3 -12 -4 -7 -8 -22 -9 -33 -5 -67 -17 -204 -28
-315 -2 -19 -7 -66 -10 -105 -4 -38 -9 -90 -12 -115 -3 -25 -7 -71 -9 -103 -3
-32 -7 -70 -9 -85 -5 -27 -17 -149 -22 -207 -1 -16 -3 -30 -4 -30 -1 0 -3 -22
-5 -50 -4 -45 -12 -100 -15 -100 0 0 -3 -25 -5 -55 -3 -50 -7 -82 -20 -180
-11 -78 -17 -127 -21 -170 -2 -25 -7 -63 -10 -85 -7 -45 -8 -56 -19 -140 -4
-33 -9 -69 -12 -80 -2 -11 -6 -40 -9 -65 -2 -25 -7 -56 -10 -70 -3 -14 -7 -43
-10 -65 -2 -22 -9 -63 -15 -91 -5 -28 -12 -68 -15 -90 -10 -81 -13 -100 -19
-129 -13 -69 -15 -82 -21 -120 -3 -22 -7 -44 -8 -50 -2 -5 -7 -32 -11 -60 -5
-27 -10 -52 -10 -55 -1 -4 -7 -31 -21 -100 -13 -66 -46 -218 -59 -275 -21 -90
-25 -105 -31 -134 -3 -14 -7 -28 -10 -33 -3 -4 -7 -17 -10 -28 -2 -11 -7 -30
-10 -42 -3 -13 -8 -35 -11 -50 -3 -16 -10 -28 -15 -28 -5 0 -7 -4 -3 -9 3 -5
0 -21 -7 -36 -11 -25 -14 -26 -62 -20 -28 4 -60 9 -71 11 -11 3 -40 7 -65 10
-25 3 -57 6 -71 8 -14 2 -52 6 -85 10 -32 4 -75 9 -94 11 -71 9 -229 22 -289
24 -13 1 -22 4 -18 7 3 3 -1 23 -8 44 -7 21 -16 51 -19 67 -3 15 -10 46 -15
68 -6 22 -10 41 -10 43 -1 1 -3 12 -6 25 -5 25 -5 21 -40 202 -29 149 -35 179
-41 220 -2 17 -6 37 -7 45 -2 8 -7 38 -11 65 -4 28 -10 61 -12 75 -3 14 -7 41
-9 60 -3 19 -7 46 -10 60 -5 28 -16 101 -20 140 -3 22 -7 47 -20 128 -2 13 -7
53 -11 90 -3 37 -8 76 -11 87 -2 11 -6 36 -8 55 -15 129 -21 184 -30 250 -2
19 -7 62 -10 95 -4 33 -8 71 -10 85 -3 23 -6 49 -20 180 -3 25 -8 72 -11 105
-3 33 -7 71 -9 85 -1 14 -6 61 -9 105 -4 44 -9 91 -11 105 -2 14 -7 61 -10
105 -3 44 -8 91 -10 105 -4 24 -14 143 -20 240 -2 25 -6 74 -10 110 -12 121
-14 145 -20 235 -11 153 -14 177 -18 182 -3 2 -1 18 3 34 5 16 5 31 0 34 -5 3
-8 13 -8 23 1 26 -11 215 -17 280 -3 31 -8 91 -11 132 -3 41 -7 104 -9 140 -3
35 -7 101 -10 145 -2 44 -7 116 -10 160 -3 44 -7 118 -10 165 -2 47 -7 123
-10 170 -3 47 -7 121 -10 165 -2 44 -7 129 -10 188 -11 182 -17 293 -29 572
-4 77 -9 176 -11 220 -3 44 -7 148 -11 230 -3 83 -7 195 -10 250 -2 55 -4 121
-5 148 0 47 -8 67 -10 25z"/>
<path d="M10041 14384 c0 -11 3 -14 6 -6 3 7 2 16 -1 19 -3 4 -6 -2 -5 -13z"/>
<path d="M6036 14365 c-3 -8 -1 -15 4 -15 6 0 10 7 10 15 0 8 -2 15 -4 15 -2
0 -6 -7 -10 -15z"/>
</g>
</svg>
